<?xml version="1.0" encoding="UTF-8" standalone="no"?>
<!DOCTYPE svg PUBLIC "-//W3C//DTD SVG 1.1//EN" "http://www.w3.org/Graphics/SVG/1.1/DTD/svg11.dtd">
<svg width="100%" height="100%" viewBox="0 0 71 37" version="1.1" xmlns="http://www.w3.org/2000/svg" xmlns:xlink="http://www.w3.org/1999/xlink" xml:space="preserve" xmlns:serif="http://www.serif.com/" style="fill-rule:evenodd;clip-rule:evenodd;stroke-linejoin:round;stroke-miterlimit:2;">
    <g transform="matrix(1.03332,0,0,1.03332,-16.1661,-32.7957)">
        <g transform="matrix(1,0,0,1,-5.73401,-8.94496)">
            <g>
                <g transform="matrix(1.34821,0,0,0.912299,-5.9685,12.1396)">
                    <rect x="31" y="40" width="1" height="3"/>
                </g>
                <g transform="matrix(1.84609,0,0,2.31964,-19.0548,-46.2651)">
                    <rect x="31" y="40" width="1" height="3"/>
                </g>
                <g transform="matrix(1,0,0,1,0.190604,0)">
                    <path d="M42.686,49.075L44.543,49.075L44.543,50.925L42.686,50.925L42.686,56.31L40.836,56.31L40.836,50.925L40.83,50.925L40.83,49.075L40.836,49.075L40.836,43.678L42.686,43.678L42.686,49.075Z"/>
                </g>
            </g>
            <g transform="matrix(-1,-1.22465e-16,1.22465e-16,-1,111.468,99.9881)">
                <g transform="matrix(1.34821,0,0,0.912299,-5.9685,12.1396)">
                    <rect x="31" y="40" width="1" height="3"/>
                </g>
                <g transform="matrix(1.84609,0,0,2.31964,-19.0548,-46.2651)">
                    <rect x="31" y="40" width="1" height="3"/>
                </g>
                <g transform="matrix(1,0,0,1,0.190604,0)">
                    <path d="M42.686,49.075L44.543,49.075L44.543,50.925L42.686,50.925L42.686,56.31L40.836,56.31L40.836,50.925L40.83,50.925L40.83,49.075L40.836,49.075L40.836,43.678L42.686,43.678L42.686,49.075Z"/>
                </g>
            </g>
            <g transform="matrix(1,0,0,1,5.73401,8.62124)">
                <path d="M49,50.324C44.503,49.826 41,46.008 41,41.379C41,36.749 44.503,32.932 49,32.434L49,37.96L47.333,37.96L47.333,34.546C44.603,35.613 42.667,38.272 42.667,41.379C42.667,44.486 44.603,47.145 47.333,48.212L47.333,42.215L44.535,42.215L44.535,40.574L49,40.574L49,50.324ZM57.286,42.215L51,42.215L51,32.434C54.612,32.834 57.582,35.375 58.612,38.757L56.85,38.757C56.112,36.832 54.586,35.296 52.667,34.546L52.667,40.574L57.29,40.574L57.289,40.572L58.964,40.572C58.988,40.838 59,41.107 59,41.379C59,46.008 55.497,49.826 51,50.324L51,44.03L52.667,44.03L52.667,48.212C55.149,47.242 56.974,44.957 57.286,42.215Z"/>
            </g>
        </g>
        <g transform="matrix(0.49178,0,0,0.49178,2.36515,35.7834)">
            <text x="27.043px" y="57.912px" style="font-family:'DessauMedium', 'Dessau';font-size:27.778px;">GymSidekiq</text>
        </g>
    </g>
</svg>
