<?xml version="1.0" encoding="utf-8"?>
<!-- Generator: Adobe Illustrator 19.2.0, SVG Export Plug-In . SVG Version: 6.00 Build 0)  -->
<svg version="1.1" id="Layer_1" xmlns="http://www.w3.org/2000/svg" xmlns:xlink="http://www.w3.org/1999/xlink" x="0px" y="0px"
	 viewBox="0 0 895.1 324.8" style="enable-background:new 0 0 895.1 324.8;" xml:space="preserve">
<style type="text/css">
	.st0{fill:#FFFFFF;}
	.st1{fill:#B90000;}
</style>
<title>creighton-mma-logo-1</title>
<g>
	<g>
		<path class="st0" d="M308.4,230.3c-106.8-23.6-142.3-10.2-142.3-10.2l-26.3,24.2c24.6-4,61.6-6.9,100.6-5.6
			c99.3,3.2,162.3,25.7,251.7,23.1c23.3-0.7,41.5-4.1,57.2-9l0.1-0.6C453.6,265.1,415.3,253.9,308.4,230.3z M633.8,51
			C537.6,55.4,522.7,77.9,402.1,71c-29.2-1.7-84.9-1.5-94-0.5l72.2,19.6c0,0,37.2,13.9,177.4-22.5c0,0,59.6-16.5,116.8-14.7
			C663.1,51.7,649.9,50.3,633.8,51z"/>
	</g>
</g>
<path class="st1" d="M895.1,216.6c0,0-8.2-70-9.4-84.7c-1.2-14.7-2.4-17.1-2.4-17.1c-11.8-24.7-43.2-37-43.2-37l-7.2-1.5
	c-2.3-10.3-13-38-62-33.8c-60.1,5.1-87.6-21-136.9-21c-49.3,0-199.3,29.5-268.7,12.6c0,0,24.4-17.5,108.6-33.9
	c0,0-140.4-7.6-302.5,96.5h173l-96.1-22.9c0,0,24.2-22,142.1-15.2c117.8,6.8,132.5-15.2,226.4-19.5C700.6,35.3,704.4,57,784.4,57
	c21.2,0,25.8,12.1,26.7,17.9c-59.4-4.3-210.7-12-288.7,13c0,0,158.2-18,275.6-6.6l0.3,0.2c1.9,0,3.7,0.1,5.4,0.1l-1.1,0.2
	c10.6,0.6,34.6,5.4,34.6,5.4c21.8,8.8,34.1,27.1,34.1,27.1s7.6,91.8,7.6,100c0,8.2-7.6,9.4-7.6,9.4l-44.3,7.4
	c-8.5,1-16.6,1.7-22.2,1.3c-9.6-0.6-14.5-5.7-17-10.3c1.2-9,6.3-18.2,12.3-26.3c4.3,0.5,22.9,2.7,34.1,8c0,0-8.9-6.4-29-14.4
	c9.1-10.8,18.4-18.3,18.4-18.3c-36.9,26.7-44.4,47.1-41.2,61.6c-10.8-9.1-19.1-17.1-19.1-17.1c0.4,6.2,10.9,16.4,20.8,25.6l10.6,1.4
	c3.8,0.8,11.4,0.2,20.5-1c0.4,5.6,0.8,20.1-3.2,35.4c-5.1,19.6-21,27.1-30.8,34.5c-9.8,7.5-15.9,5.1-20.1,3.7
	c-4.2-1.4-12.8-7.2-19.4-11.9c-6.1-4.4-28.5-22-43.6-30.1c-14-7.5-11.6-46.8-11.6-46.8c-79.7,5.8-105.3,45.6-194.7,48.2
	c-89.4,2.6-152.4-16.1-251.7-19.3c-99.3-3.2-154,20.6-154,20.6c15-29,66.6-60.1,66.6-60.1S83.9,236.8,0,302.3
	c65.5-21.1,95.2-0.1,182.3,16c87.1,16.1,160.5-5.1,160.5-5.1c-97.9,7.1-153.2-22.7-153.2-22.7c73.8-28.5,231.8,2.1,300.6-1.7
	c68.8-3.9,109.8-24.4,141.4-33.7c20-5.9,28.9-4.7,32.7-3.1c1.3,12.3,4.4,20.6,11.2,24c11.5,5.8,48.3,27.2,60.7,37.8
	c12.6,10.7,36.9,14.9,48.1,6.5c11.2-8.4,35-28.9,37.8-35.5c2.4-5.7,3.9-36.7,4.3-44.8c5.4-0.7,10.8-1.5,16-2.3
	c6.4-0.7,14-1.4,21.1-2.2l3.2-0.3c4.1-0.4,8-0.8,11.4-1.1C896.2,232.5,895.1,216.6,895.1,216.6z M573.3,240.2
	c50.6-7.7,70.4-12.9,70.4-12.9H342.4C435.6,243.5,479.2,252.4,573.3,240.2z"/>
<g>
	<g>
		<g>
			<g>
				<g>
					<path class="st0" d="M210.7,120.4c-2.5-1-4.7-1.8-9.5-1.8h-17.7c-3.2,0-5.1,1-5.9,4.2l-8.7,35.7c-0.8,3.2,0.6,4.2,3.8,4.2h14
						c9.9,0,11.7-0.7,15.5-2.5l-5.4,13.4h-40c-10.5,0-15.2-5.2-11.7-19.4l6.7-27.3c3.5-14.3,10.6-19.4,21.2-19.4h38.9L210.7,120.4z"
						/>
				</g>
			</g>
			<g>
				<g>
					<path class="st0" d="M239.9,145.1l-4.2,17.4c-1.5,6.3-1.3,8.8-0.8,11.4h-28.8c1.8-2.6,3.3-5.1,4.8-11.4l10.6-43.4
						c1.5-6.3,1.3-8.8,0.1-11.4H275c11.4,0,16,3.5,13.3,14.6l-3,12.2c-2.4,9.7-7.2,10.2-12.5,10.6l4.3,18.6c1,4.2,1.4,7.6,2.9,10.1
						h-27.7l-4.7-28.7H239.9z M242.6,134.2h14c3.1,0,4.2-0.5,5-3.7l2-8.1c0.8-3.2,0-3.7-3.2-3.7h-14L242.6,134.2z"/>
				</g>
			</g>
			<g>
				<g>
					<path class="st0" d="M338.9,162.9c5.8,0,8.8-0.9,11.6-1.8l-5.3,12.7h-57.2c1.8-2.6,3.3-5.1,4.8-11.4l10.6-43.4
						c1.5-6.3,1.3-8.8,0.8-11.4h56.2l-1.1,12.7c-2.4-0.8-5-1.8-10.8-1.8h-20.2l-3.8,15.5H342c5.7,0,8.7-0.9,11.6-1.8l-3.5,14.5
						c-2.4-0.8-5-1.8-10.7-1.8h-17.6l-4.3,17.8H338.9z"/>
				</g>
			</g>
			<g>
				<g>
					<path class="st0" d="M356.5,173.8c1.8-2.6,3.3-5.1,4.8-11.4l10.6-43.4c1.5-6.3,1.3-8.8,0.8-11.4h28.8
						c-1.8,2.6-3.3,5.1-4.8,11.4l-10.6,43.4c-1.5,6.3-1.3,8.8-0.8,11.4H356.5z"/>
				</g>
			</g>
			<g>
				<g>
					<path class="st0" d="M478.4,134.2c-3.8,4.4-4.5,5.8-5.6,10.3l-4,16.3c-2,8.2-1.9,9.5-0.6,13h-21.8l0.7-6.1H447
						c-2.1,3.8-3.5,6.1-10.5,6.1h-21.9c-10.5,0-15.2-5.2-11.7-19.4l6.7-27.3c3.5-14.3,10.6-19.4,21.2-19.4h47.5l-1.2,12.7
						c-2.5-1-4.7-1.8-9.5-1.8h-26.3c-3.2,0-5.1,1-5.9,4.2l-8.7,35.7c-0.8,3.2,0.6,4.2,3.8,4.2h8.3c3.2,0,5.1-1,5.9-4.2l3.3-13.5
						h-7.2c-1.8,0-3.1,0.6-4.5,1.2l3-12.2H478.4z"/>
				</g>
			</g>
			<g>
				<g>
					<path class="st0" d="M531.9,134.2l3.7-15.1c1.5-6.3,1.3-8.8,0.8-11.4h28.8c-1.9,2.6-3.3,5.1-4.8,11.4l-10.6,43.4
						c-1.5,6.3-1.3,8.8-0.7,11.4h-28.8c1.8-2.6,3.3-5.1,4.8-11.4l4.2-17.4h-18.5l-4.2,17.4c-1.5,6.3-1.3,8.8-0.8,11.4H477
						c1.8-2.6,3.3-5.1,4.8-11.4l10.6-43.4c1.5-6.3,1.3-8.8,0.7-11.4H522c-1.8,2.6-3.3,5.1-4.8,11.4l-3.7,15.1H531.9z"/>
				</g>
			</g>
			<g>
				<g>
					<path class="st0" d="M635.2,107.7l-1.3,13.6c-2.3-1.8-4-2.7-8.6-2.7h-11.3l-10.7,43.8c-1.5,6.3-1.3,8.8-0.8,11.4h-28.8
						c1.8-2.6,3.3-5.1,4.8-11.4l10.7-43.8h-11.3c-4.6,0-6.7,0.9-9.9,2.7l5.4-13.6H635.2z"/>
				</g>
			</g>
			<g>
				<g>
					<path class="st0" d="M639.9,127.1c3.5-14.3,10.6-19.4,21.2-19.4h37.1c10.5,0,15.2,5.2,11.7,19.4l-6.7,27.3
						c-3.5,14.3-10.6,19.4-21.2,19.4h-37.1c-10.5,0-15.2-5.2-11.7-19.4L639.9,127.1z M656.9,158.7c-0.8,3.2,0.6,4.2,3.8,4.2h10.7
						c3.2,0,5.1-1,5.9-4.2l8.8-35.7c0.8-3.2-0.6-4.2-3.8-4.2h-10.7c-3.2,0-5.1,1-5.9,4.2L656.9,158.7z"/>
				</g>
			</g>
			<g>
				<g>
					<path class="st0" d="M735.7,119.1h-0.2L725,162c-1.8,7.4-1.8,8.8-0.5,11.9h-15.6c2.9-3.1,3.5-4.4,5.3-11.9l10.4-42.4
						c1.8-7.4,1.8-8.8,0.5-11.9h34.8l13.2,53.9h0.3l10.3-42c1.8-7.4,1.8-8.8,0.5-11.9h15.6c-2.9,3.1-3.5,4.4-5.3,11.9l-13.3,54.2
						h-32L735.7,119.1z"/>
				</g>
			</g>
		</g>
	</g>
</g>
<path class="st0" d="M139.2,185.7l12.6,0l1.3,14.5l8.4-14.5l12.6,0l-5.9,23.8l-7.9,0l4.5-18.2l-10.6,18.2l-7.1,0l-1.5-18.2
	l-4.6,18.2l-7.8,0L139.2,185.7z"/>
<path class="st0" d="M180.2,185.6l12.6,0l1.3,14.5l8.4-14.5l12.6,0l-5.9,23.8l-7.9,0l4.5-18.2l-10.6,18.2l-7.1,0l-1.5-18.2
	l-4.5,18.2l-7.9,0L180.2,185.6z"/>
<path class="st0" d="M235.4,205.4l-10.9,0l-2.5,3.9l-9.9,0l17.6-23.9l10.4,0l5.8,23.8l-10,0L235.4,205.4z M234.7,200.3l-1.3-8.6
	l-5.6,8.6L234.7,200.3z"/>
<path class="st0" d="M291,197.6l6.4,1.2c-0.6,1-1.1,1.8-1.6,2.3c-0.6,0.7-1.2,1.4-1.9,2.1l2.8,1.7c0.3,0.2,0.8,0.4,1.4,0.7l-5.6,4.1
	c-0.7-0.4-1.5-0.8-2.4-1.2c-0.7-0.4-1.4-0.8-2.2-1.2c-1.6,0.7-3.2,1.3-4.9,1.7c-2.4,0.5-4.8,0.7-7.2,0.7c-4.2,0-7-0.7-8.7-1.9
	c-1.6-1.1-2.3-3-1.8-4.9c0.5-1.5,1.4-2.9,2.7-3.9c2-1.4,4.2-2.5,6.6-3.1c-0.7-0.8-1.3-1.7-1.6-2.7c-0.2-0.8-0.3-1.6-0.1-2.3
	c0.5-1.8,1.8-3.3,3.6-4.2c2.5-1.2,5.3-1.8,8-1.7c3.5,0,5.9,0.5,7.3,1.5c1.3,0.8,1.9,2.2,1.5,3.7c-0.2,0.9-0.7,1.7-1.3,2.3
	c-0.6,0.7-1.4,1.3-2.2,1.9c-1.4,0.8-2.8,1.4-4.3,2.1c1.2,1.2,2.5,2.2,3.9,3.2C290,199,290.5,198.3,291,197.6z M277.6,199.3
	c-1,0.4-1.9,1-2.8,1.7c-0.4,0.4-0.8,0.9-1,1.5c-0.2,0.8,0.2,1.6,0.8,2.1c0.9,0.7,2.1,1,3.3,0.9c1.9-0.1,3.8-0.6,5.5-1.4
	C281.9,202.9,280,201.3,277.6,199.3L277.6,199.3z M282.1,193.5c1.1-0.4,2.1-0.9,3-1.6c0.6-0.4,1.1-0.9,1.3-1.6
	c0.1-0.5-0.1-1-0.4-1.3c-0.6-0.4-1.3-0.6-2-0.5c-0.8,0-1.6,0.2-2.3,0.6c-0.6,0.3-1,0.8-1.1,1.4C280.3,191.2,280.8,192.2,282.1,193.5
	L282.1,193.5z"/>
<path class="st0" d="M322.7,185.3l23.7-0.1l-1.3,5.2l-14.1,0l-1.1,4.2l12,0l-1.2,4.9l-12,0l-2.5,9.7l-9.6,0L322.7,185.3z"/>
<path class="st0" d="M352,185.2l9.6,0l-5.9,23.8l-9.6,0L352,185.2z"/>
<path class="st0" d="M366.3,185.2l29.2-0.1l-1.5,5.9l-9.8,0l-4.4,18l-9.6,0l4.4-18l-9.8,0L366.3,185.2z"/>
<path class="st0" d="M399.9,185.1l8.9,0l8.4,13.2l3.3-13.2l9,0l-5.9,23.8l-9,0l-8.3-13.1L403,209l-9,0L399.9,185.1z"/>
<path class="st0" d="M435.9,185l25.7-0.1l-1.3,5.1l-16.1,0l-1,3.8l14.9,0l-1.2,4.9l-14.9,0l-1.2,4.7l16.6,0l-1.4,5.5l-26.2,0.1
	L435.9,185z"/>
<path class="st0" d="M461.7,200.9l9.2-0.5c-0.1,0.9,0.1,1.8,0.6,2.6c0.7,1,2,1.5,3.8,1.4c1.2,0,2.3-0.2,3.3-0.8
	c0.7-0.4,1.3-1,1.6-1.8c0.2-0.6-0.1-1.3-0.7-1.7c-0.6-0.5-2.1-0.9-4.6-1.4c-4-0.7-6.8-1.6-8.3-2.9c-1.5-1-2.1-2.8-1.6-4.6
	c0.4-1.4,1.2-2.6,2.3-3.5c1.4-1.2,3-2.1,4.8-2.5c2.6-0.7,5.3-1,7.9-1c4,0,6.9,0.6,8.6,1.6c1.8,1.2,2.8,3.3,2.4,5.4l-9.1,0.4
	c0.1-0.9-0.2-1.8-0.9-2.3c-0.9-0.6-2-0.8-3-0.8c-0.9,0-1.8,0.2-2.7,0.6c-0.6,0.3-1,0.8-1.2,1.4c-0.1,0.4,0.1,0.8,0.5,1.1
	c0.9,0.5,2,0.8,3,0.9c2.9,0.4,5.8,1.1,8.5,2.1c1.4,0.5,2.6,1.4,3.3,2.6c0.5,1.1,0.7,2.3,0.4,3.5c-0.5,1.6-1.4,3.1-2.7,4.3
	c-1.6,1.3-3.4,2.3-5.3,2.9c-2.5,0.7-5.1,1-7.8,1c-5.3,0-8.8-0.8-10.4-2.3C462,205.3,461.3,203.1,461.7,200.9z"/>
<path class="st0" d="M493.1,200.9l9.2-0.5c-0.1,0.9,0.1,1.8,0.6,2.6c0.7,1,2,1.5,3.8,1.4c1.2,0,2.3-0.2,3.3-0.8
	c0.7-0.4,1.3-1,1.6-1.8c0.2-0.6-0.1-1.3-0.7-1.7c-0.6-0.5-2.1-0.9-4.6-1.4c-4-0.7-6.8-1.6-8.3-2.9c-1.5-1-2.1-2.8-1.6-4.6
	c0.4-1.4,1.2-2.6,2.3-3.5c1.4-1.2,3-2.1,4.8-2.5c2.6-0.7,5.3-1,7.9-1c4,0,6.9,0.6,8.6,1.6c1.8,1.2,2.8,3.3,2.4,5.4l-9.1,0.4
	c0.1-0.9-0.2-1.8-0.9-2.3c-0.9-0.6-2-0.8-3-0.8c-0.9,0-1.8,0.2-2.7,0.6c-0.6,0.3-1,0.8-1.2,1.4c-0.1,0.4,0.1,0.8,0.5,1.1
	c0.9,0.5,2,0.8,3,0.9c2.9,0.4,5.8,1.1,8.5,2.1c1.4,0.5,2.6,1.4,3.3,2.6c0.5,1.1,0.7,2.3,0.4,3.5c-0.5,1.6-1.4,3.1-2.7,4.3
	c-1.6,1.3-3.4,2.3-5.3,2.9c-2.5,0.7-5.1,1-7.8,1c-5.3,0-8.8-0.8-10.4-2.3C493.3,205.2,492.7,203,493.1,200.9z"/>
<path class="st0" d="M558.7,204.7l-10.9,0l-2.5,3.9l-9.8,0l17.6-23.9l10.4,0l5.8,23.8l-10,0L558.7,204.7z M558,199.6l-1.3-8.6
	l-5.6,8.6L558,199.6z"/>
<path class="st0" d="M594.7,198.8l8,1.9c-0.9,1.8-2.2,3.3-3.8,4.6c-1.6,1.2-3.3,2.2-5.3,2.7c-2.3,0.7-4.7,1-7.1,1
	c-2.7,0.1-5.5-0.3-8-1.2c-2-0.8-3.6-2.2-4.6-4c-1.1-1.9-1.2-4.3-0.5-7.3c0.8-3.7,3.1-7,6.3-9.2c3.2-2.2,7.4-3.2,12.4-3.2
	c3.9,0,6.9,0.6,8.8,1.8c2,1.3,3.3,3.3,3.6,5.6l-8.8,1.5c-0.1-0.5-0.2-1.1-0.5-1.6c-0.4-0.6-1-1-1.6-1.3c-0.8-0.3-1.6-0.5-2.5-0.5
	c-2-0.1-4,0.7-5.5,2.1c-1.3,1.3-2.2,2.9-2.5,4.7c-0.7,2.6-0.6,4.5,0.2,5.4c1,1,2.5,1.6,4,1.4c1.6,0.1,3.1-0.3,4.4-1.2
	C593,201.3,594,200.1,594.7,198.8z"/>
<path class="st0" d="M625.5,204.6l-10.9,0l-2.5,3.9l-9.8,0l17.6-23.9l10.5,0l5.8,23.8l-10,0L625.5,204.6z M624.7,199.4l-1.3-8.6
	l-5.6,8.6L624.7,199.4z"/>
<path class="st0" d="M645.2,184.6l14.3,0c2.3-0.1,4.5,0.2,6.6,0.9c1.4,0.5,2.7,1.4,3.6,2.5c0.9,1.1,1.4,2.4,1.5,3.8
	c0.1,1.6,0,3.1-0.4,4.7c-0.4,2.1-1.3,4.2-2.6,5.9c-1.1,1.4-2.5,2.6-4,3.5c-1.5,0.9-3.1,1.5-4.8,1.9c-2,0.4-3.9,0.6-5.9,0.7l-14.3,0
	L645.2,184.6z M653.5,190l-3.3,13l2.3,0c1.5,0,3-0.1,4.4-0.5c0.9-0.4,1.8-1,2.5-1.8c0.9-1.3,1.5-2.7,1.7-4.2
	c0.6-2.5,0.5-4.3-0.3-5.2s-2.5-1.4-5-1.4L653.5,190L653.5,190L653.5,190z"/>
<path class="st0" d="M678.9,184.5l25.7-0.1l-1.3,5.1l-16.1,0l-1,3.8l14.9,0l-1.2,4.9l-14.9,0l-1.2,4.7l16.6,0l-1.3,5.4l-26.3,0.1
	L678.9,184.5z"/>
<path class="st0" d="M710.2,184.4l12.6,0l1.3,14.5l8.4-14.5l12.6,0l-5.9,23.8l-7.9,0l4.5-18.2l-10.6,18.2l-7.1,0l-1.5-18.2
	l-4.5,18.2l-7.9,0L710.2,184.4z"/>
<path class="st0" d="M748.1,184.4l10.7,0l4.2,8.1l8.3-8.1l10.6,0l-15.6,14l-2.5,10l-9.6,0l2.5-10L748.1,184.4z"/>
</svg>
