<?xml version="1.0" encoding="UTF-8" standalone="no"?>
<!DOCTYPE svg PUBLIC "-//W3C//DTD SVG 1.1//EN" "http://www.w3.org/Graphics/SVG/1.1/DTD/svg11.dtd">
<svg width="100%" height="100%" viewBox="0 0 100 100" version="1.1" xmlns="http://www.w3.org/2000/svg" xmlns:xlink="http://www.w3.org/1999/xlink" xml:space="preserve" xmlns:serif="http://www.serif.com/" style="fill-rule:evenodd;clip-rule:evenodd;stroke-linejoin:round;stroke-miterlimit:2;">
    <g transform="matrix(1,0,0,0.875359,-1.11903,13.7563)">
        <path d="M91.11,24.419C91.11,21.264 88.871,18.707 86.11,18.707C71.749,18.707 30.489,18.707 16.128,18.707C13.367,18.707 11.128,21.264 11.128,24.419C11.128,24.419 11.128,24.419 11.128,24.419C11.128,27.573 13.367,30.131 16.128,30.131C30.489,30.131 71.749,30.131 86.11,30.131C88.871,30.131 91.11,27.573 91.11,24.419C91.11,24.419 91.11,24.419 91.11,24.419Z"/>
    </g>
    <g transform="matrix(1,0,0,0.875359,-1.11903,43.4934)">
        <path d="M91.11,24.419C91.11,21.264 88.871,18.707 86.11,18.707C71.749,18.707 30.489,18.707 16.128,18.707C13.367,18.707 11.128,21.264 11.128,24.419C11.128,24.419 11.128,24.419 11.128,24.419C11.128,27.573 13.367,30.131 16.128,30.131C30.489,30.131 71.749,30.131 86.11,30.131C88.871,30.131 91.11,27.573 91.11,24.419C91.11,24.419 91.11,24.419 91.11,24.419Z"/>
    </g>
</svg>
